<?xml version="1.0" standalone="no"?>
<!DOCTYPE svg PUBLIC "-//W3C//DTD SVG 20010904//EN"
 "http://www.w3.org/TR/2001/REC-SVG-20010904/DTD/svg10.dtd">
<svg version="1.0" xmlns="http://www.w3.org/2000/svg"
 width="689.000000pt" height="689.000000pt" viewBox="0 0 689.000000 689.000000"
 preserveAspectRatio="xMidYMid meet">
<metadata>
Created by potrace 1.11, written by Peter Selinger 2001-2013
</metadata>
<g transform="translate(0.000000,689.000000) scale(0.100000,-0.100000)"
fill="#000000" stroke="none">
<path d="M3240 6704 c-1025 -70 -1953 -610 -2515 -1464 -297 -452 -467 -930
-526 -1480 -17 -161 -15 -514 5 -685 72 -617 309 -1188 700 -1680 95 -120 296
-327 421 -435 493 -424 1085 -683 1750 -766 169 -21 546 -24 710 -6 776 88
1439 405 1980 947 614 613 955 1437 955 2304 0 1151 -595 2204 -1583 2803
-384 233 -817 383 -1277 443 -119 15 -501 27 -620 19z m1620 -1300 c257 -45
428 -215 502 -499 l23 -90 0 -1280 0 -1280 -23 -90 c-65 -255 -215 -424 -437
-491 -57 -17 -130 -18 -1305 -15 -685 1 -1254 5 -1266 8 -19 4 -22 14 -28 86
-3 45 -6 884 -6 1863 0 1687 1 1782 18 1790 30 13 707 20 1587 16 691 -3 866
-6 935 -18z m-2814 -502 c38 -30 54 -76 54 -154 0 -88 -21 -135 -71 -160 -46
-24 -350 -26 -404 -4 -92 39 -113 222 -35 306 l28 30 204 0 c177 0 206 -3 224
-18z m-10 -481 c44 -27 64 -76 64 -160 0 -79 -22 -136 -60 -159 -32 -20 -406
-17 -436 3 -56 36 -79 189 -40 263 34 65 59 72 261 72 159 0 184 -2 211 -19z
m-7 -484 c48 -24 66 -62 70 -148 4 -91 -8 -128 -51 -164 -29 -25 -32 -25 -218
-25 -126 0 -198 4 -215 12 -54 24 -88 142 -66 224 13 48 45 92 75 104 34 14
377 12 405 -3z m20 -502 c40 -34 54 -82 49 -170 -2 -55 -9 -81 -24 -102 -37
-49 -55 -53 -257 -53 l-189 0 -33 33 c-40 40 -59 104 -52 170 7 56 41 121 71
135 12 6 104 11 213 11 191 1 192 1 222 -24z m-8 -478 c40 -30 59 -80 59 -155
0 -87 -19 -136 -64 -163 -27 -17 -52 -19 -211 -19 -200 0 -228 7 -260 69 -38
75 -26 196 25 251 l28 30 204 0 c145 -1 208 -4 219 -13z m-12 -485 c50 -25 71
-72 71 -160 0 -52 -5 -83 -19 -110 -32 -62 -50 -67 -260 -67 -164 0 -190 2
-215 18 -55 36 -80 150 -52 235 30 90 53 98 301 101 116 1 146 -2 174 -17z"/>
<path d="M2520 4790 l0 -120 1283 2 1282 3 3 118 3 117 -1286 0 -1285 0 0
-120z"/>
<path d="M2520 4475 l0 -115 1285 0 1285 0 0 115 0 115 -1285 0 -1285 0 0
-115z"/>
<path d="M2520 4160 l0 -120 1283 2 1282 3 0 115 0 115 -1282 3 -1283 2 0
-120z"/>
<path d="M2520 3845 l0 -115 1285 0 1285 0 0 115 0 115 -1285 0 -1285 0 0
-115z"/>
<path d="M2520 3525 l0 -115 1285 0 1285 0 0 115 0 115 -1285 0 -1285 0 0
-115z"/>
<path d="M2520 3210 l0 -120 1283 2 1282 3 3 118 3 117 -1286 0 -1285 0 0
-120z"/>
<path d="M2520 2895 l0 -115 1285 0 1285 0 0 115 0 115 -1285 0 -1285 0 0
-115z"/>
<path d="M2520 2575 l0 -115 790 0 790 0 0 115 0 115 -790 0 -790 0 0 -115z"/>
<path d="M1650 4811 c-14 -27 -13 -103 3 -124 11 -16 31 -17 177 -15 l165 3 9
38 c6 23 6 51 0 75 l-9 37 -167 3 c-157 2 -168 1 -178 -17z"/>
<path d="M1650 4321 c-14 -27 -13 -103 3 -124 11 -16 31 -17 177 -15 l165 3 9
38 c6 23 6 51 0 75 l-9 37 -167 3 c-157 2 -168 1 -178 -17z"/>
<path d="M1650 3831 c-13 -25 -13 -97 0 -122 10 -18 23 -19 174 -19 l163 0 11
25 c15 32 15 90 2 116 -10 18 -23 19 -175 19 -152 0 -165 -1 -175 -19z"/>
<path d="M1646 3338 c-9 -35 -7 -87 4 -109 10 -18 23 -19 175 -19 184 0 185 0
185 75 0 75 0 75 -189 75 -166 0 -169 0 -175 -22z"/>
<path d="M1650 2861 c-14 -27 -13 -103 3 -124 11 -16 31 -17 177 -15 l165 3 9
38 c6 23 6 51 0 75 l-9 37 -167 3 c-157 2 -168 1 -178 -17z"/>
<path d="M1650 2371 c-14 -27 -13 -103 3 -124 11 -16 31 -17 177 -15 l165 3 9
38 c6 23 6 51 0 75 l-9 37 -167 3 c-157 2 -168 1 -178 -17z"/>
</g>
</svg>
