<svg version="1" xmlns="http://www.w3.org/2000/svg" width="918.667" height="918.667" viewBox="0 0 689.000000 689.000000"><path d="M324 18.6c-102.5 7-195.3 61-251.5 146.4-29.7 45.2-46.7 93-52.6 148-1.7 16.1-1.5 51.4.5 68.5 7.2 61.7 30.9 118.8 70 168 9.5 12 29.6 32.7 42.1 43.5 49.3 42.4 108.5 68.3 175 76.6 16.9 2.1 54.6 2.4 71 .6 77.6-8.8 143.9-40.5 198-94.7 61.4-61.3 95.5-143.7 95.5-230.4 0-115.1-59.5-220.4-158.3-280.3C475.3 41.5 432 26.5 386 20.5c-11.9-1.5-50.1-2.7-62-1.9zm162 130c25.7 4.5 42.8 21.5 50.2 49.9l2.3 9v256l-2.3 9c-6.5 25.5-21.5 42.4-43.7 49.1-5.7 1.7-13 1.8-130.5 1.5-68.5-.1-125.4-.5-126.6-.8-1.9-.4-2.2-1.4-2.8-8.6-.3-4.5-.6-88.4-.6-186.3 0-168.7.1-178.2 1.8-179 3-1.3 70.7-2 158.7-1.6 69.1.3 86.6.6 93.5 1.8zm-281.4 50.2c3.8 3 5.4 7.6 5.4 15.4 0 8.8-2.1 13.5-7.1 16-4.6 2.4-35 2.6-40.4.4-9.2-3.9-11.3-22.2-3.5-30.6l2.8-3h20.4c17.7 0 20.6.3 22.4 1.8zm-1 48.1c4.4 2.7 6.4 7.6 6.4 16 0 7.9-2.2 13.6-6 15.9-3.2 2-40.6 1.7-43.6-.3-5.6-3.6-7.9-18.9-4-26.3 3.4-6.5 5.9-7.2 26.1-7.2 15.9 0 18.4.2 21.1 1.9zm-.7 48.4c4.8 2.4 6.6 6.2 7 14.8.4 9.1-.8 12.8-5.1 16.4-2.9 2.5-3.2 2.5-21.8 2.5-12.6 0-19.8-.4-21.5-1.2-5.4-2.4-8.8-14.2-6.6-22.4 1.3-4.8 4.5-9.2 7.5-10.4 3.4-1.4 37.7-1.2 40.5.3zm2 50.2c4 3.4 5.4 8.2 4.9 17-.2 5.5-.9 8.1-2.4 10.2-3.7 4.9-5.5 5.3-25.7 5.3h-18.9l-3.3-3.3c-4-4-5.9-10.4-5.2-17 .7-5.6 4.1-12.1 7.1-13.5 1.2-.6 10.4-1.1 21.3-1.1 19.1-.1 19.2-.1 22.2 2.4zm-.8 47.8c4 3 5.9 8 5.9 15.5 0 8.7-1.9 13.6-6.4 16.3-2.7 1.7-5.2 1.9-21.1 1.9-20 0-22.8-.7-26-6.9-3.8-7.5-2.6-19.6 2.5-25.1l2.8-3h20.4c14.5.1 20.8.4 21.9 1.3zm-1.2 48.5c5 2.5 7.1 7.2 7.1 16 0 5.2-.5 8.3-1.9 11-3.2 6.2-5 6.7-26 6.7-16.4 0-19-.2-21.5-1.8-5.5-3.6-8-15-5.2-23.5 3-9 5.3-9.8 30.1-10.1 11.6-.1 14.6.2 17.4 1.7z"/><path d="M252 210v12l128.3-.2 128.2-.3.3-11.8.3-11.7H252v12zM252 241.5V253h257v-23H252v11.5zM252 273v12l128.3-.2 128.2-.3v-23l-128.2-.3L252 261v12zM252 304.5V316h257v-23H252v11.5zM252 336.5V348h257v-23H252v11.5zM252 368v12l128.3-.2 128.2-.3.3-11.8.3-11.7H252v12zM252 399.5V411h257v-23H252v11.5zM252 431.5V443h158v-23H252v11.5zM165 207.9c-1.4 2.7-1.3 10.3.3 12.4 1.1 1.6 3.1 1.7 17.7 1.5l16.5-.3.9-3.8c.6-2.3.6-5.1 0-7.5l-.9-3.7-16.7-.3c-15.7-.2-16.8-.1-17.8 1.7zM165 256.9c-1.4 2.7-1.3 10.3.3 12.4 1.1 1.6 3.1 1.7 17.7 1.5l16.5-.3.9-3.8c.6-2.3.6-5.1 0-7.5l-.9-3.7-16.7-.3c-15.7-.2-16.8-.1-17.8 1.7zM165 305.9c-1.3 2.5-1.3 9.7 0 12.2 1 1.8 2.3 1.9 17.4 1.9h16.3l1.1-2.5c1.5-3.2 1.5-9 .2-11.6-1-1.8-2.3-1.9-17.5-1.9s-16.5.1-17.5 1.9zM164.6 355.2c-.9 3.5-.7 8.7.4 10.9 1 1.8 2.3 1.9 17.5 1.9 18.4 0 18.5 0 18.5-7.5s0-7.5-18.9-7.5c-16.6 0-16.9 0-17.5 2.2zM165 402.9c-1.4 2.7-1.3 10.3.3 12.4 1.1 1.6 3.1 1.7 17.7 1.5l16.5-.3.9-3.8c.6-2.3.6-5.1 0-7.5l-.9-3.7-16.7-.3c-15.7-.2-16.8-.1-17.8 1.7zM165 451.9c-1.4 2.7-1.3 10.3.3 12.4 1.1 1.6 3.1 1.7 17.7 1.5l16.5-.3.9-3.8c.6-2.3.6-5.1 0-7.5l-.9-3.7-16.7-.3c-15.7-.2-16.8-.1-17.8 1.7z"/></svg>